<!DOCTYPE svg PUBLIC "-//W3C//DTD SVG 1.1//EN" "http://www.w3.org/Graphics/SVG/1.1/DTD/svg11.dtd">

<!-- Uploaded to: SVG Repo, www.svgrepo.com, Transformed by: SVG Repo Mixer Tools -->
<svg width="24" height="24" viewBox="0 0 16.00 16.00" xmlns="http://www.w3.org/2000/svg" fill="#0d6efd" transform="matrix(1, 0, 0, 1, 0, 0)rotate(0)" stroke="#0d6efd" stroke-width="1.04">

<g id="SVGRepo_bgCarrier" stroke-width="0"/>

<g id="SVGRepo_tracerCarrier" stroke-linecap="round" stroke-linejoin="round" stroke="#CCCCCC" stroke-width="0.192"/>

<g id="SVGRepo_iconCarrier"> <path d="M8 .262S6.364 3 2 3c0 9.31 6 12.594 6 12.594S14 12.31 14 3C9.636 3 8 .262 8 .262zm0 1.386c.272.312.257.42.781.795.912.654 2.362 1.19 4.153 1.391-.174 3.943-1.439 6.642-2.73 8.352-.982 1.298-1.74 1.878-2.204 2.193-.463-.315-1.222-.895-2.203-2.193-1.292-1.71-2.557-4.409-2.73-8.352 1.79-.2 3.24-.737 4.152-1.39.524-.377.51-.483.781-.796z" style="marker:none" color="#0d6efd" overflow="visible" fill="gray"/> </g>

</svg>